<?xml version="1.0"?>
<svg xmlns:rdf="http://www.w3.org/1999/02/22-rdf-syntax-ns#" xmlns="http://www.w3.org/2000/svg" xmlns:cc="http://creativecommons.org/ns#" xmlns:xlink="http://www.w3.org/1999/xlink" xmlns:dc="http://purl.org/dc/elements/1.1/" xmlns:svg="http://www.w3.org/2000/svg" id="svg3056" viewBox="0 0 600 300" version="1.1">
  <title id="title4635">Blue berries</title>
  <defs id="defs3058">
    <linearGradient id="linearGradient4004">
      <stop id="stop4006" stop-color="#ba00ff" offset="0"/>
      <stop id="stop4008" stop-color="#364e59" offset="1"/>
    </linearGradient>
    <linearGradient id="linearGradient3994">
      <stop id="stop3996" stop-color="#19aeff" offset="0"/>
      <stop id="stop3998" stop-color="#9eabb0" offset="1"/>
    </linearGradient>
    <radialGradient id="radialGradient3896" gradientUnits="userSpaceOnUse" cy="668.72" cx="898.88" gradientTransform="matrix(1.4116 .70581 -.32919 .65838 -243.02 -459.49)" r="93.105">
      <stop id="stop3892" stop-color="#0e232e" offset="0"/>
      <stop id="stop3894" stop-color="#0e232e" offset="1"/>
    </radialGradient>
    <filter id="filter3946" width="1.4555" y="-.13677" x="-.22776" height="1.2735" color-interpolation-filters="sRGB">
      <feGaussianBlur id="feGaussianBlur3948" stdDeviation="14.788832"/>
    </filter>
    <filter id="filter3950" width="1.39" y="-.43418" x="-.19502" height="1.8684" color-interpolation-filters="sRGB">
      <feGaussianBlur id="feGaussianBlur3952" stdDeviation="14.788832"/>
    </filter>
    <filter id="filter3954" width="1.4348" y="-3.0008" x="-.21739" height="7.0015" color-interpolation-filters="sRGB">
      <feGaussianBlur id="feGaussianBlur3956" stdDeviation="14.788832"/>
    </filter>
    <filter id="filter3958" width="1.8419" y="-.74503" x="-.42096" height="2.4901" color-interpolation-filters="sRGB">
      <feGaussianBlur id="feGaussianBlur3960" stdDeviation="14.788832"/>
    </filter>
    <filter id="filter3962" width="2.2065" y="-.39158" x="-.60324" height="1.7832" color-interpolation-filters="sRGB">
      <feGaussianBlur id="feGaussianBlur3964" stdDeviation="14.788832"/>
    </filter>
    <filter id="filter3966" width="1.4091" y="-.97972" x="-.20454" height="2.9594" color-interpolation-filters="sRGB">
      <feGaussianBlur id="feGaussianBlur3968" stdDeviation="14.788832"/>
    </filter>
    <filter id="filter3970" width="1.3627" y="-.12071" x="-.18137" height="1.2414" color-interpolation-filters="sRGB">
      <feGaussianBlur id="feGaussianBlur3972" stdDeviation="14.788832"/>
    </filter>
    <filter id="filter3974" width="1.4234" y="-.091027" x="-.21168" height="1.1821" color-interpolation-filters="sRGB">
      <feGaussianBlur id="feGaussianBlur3976" stdDeviation="14.788832"/>
    </filter>
    <filter id="filter3978" width="1.4993" y="-.08808" x="-.24966" height="1.1762" color-interpolation-filters="sRGB">
      <feGaussianBlur id="feGaussianBlur3980" stdDeviation="14.788832"/>
    </filter>
    <filter id="filter3982" width="2.4776" y="-.082561" x="-.73881" height="1.1651" color-interpolation-filters="sRGB">
      <feGaussianBlur id="feGaussianBlur3984" stdDeviation="14.788832"/>
    </filter>
    <filter id="filter3986" width="2.803" y="-.087959" x="-.90152" height="1.1759" color-interpolation-filters="sRGB">
      <feGaussianBlur id="feGaussianBlur3988" stdDeviation="14.788832"/>
    </filter>
    <filter id="filter3990" width="1.5813" y="-.10169" x="-.29064" height="1.2034" color-interpolation-filters="sRGB">
      <feGaussianBlur id="feGaussianBlur3992" stdDeviation="14.788832"/>
    </filter>
    <radialGradient id="radialGradient4000" xlink:href="#linearGradient3994" gradientUnits="userSpaceOnUse" cy="1026.8" cx="1120" gradientTransform="matrix(.36750 .29037 -.14381 .18202 166.51 349.17)" r="314.87"/>
    <radialGradient id="radialGradient4010" xlink:href="#linearGradient4004" gradientUnits="userSpaceOnUse" cy="786.62" cx="617.14" gradientTransform="matrix(-.42195 -.0022685 .0012472 -.23197 815.58 1100.9)" r="314.87"/>
    <filter id="filter4012" color-interpolation-filters="sRGB">
      <feGaussianBlur id="feGaussianBlur4014" stdDeviation="5.2943999"/>
    </filter>
    <radialGradient id="radialGradient4036" gradientUnits="userSpaceOnUse" cy="582.87" cx="922.86" gradientTransform="matrix(-1.2275 .65133 -.30316 -.57133 2232.4 335.72)" r="114.05">
      <stop id="stop4032" stop-color="#005c94" offset="0"/>
      <stop id="stop4034" stop-color="#0e232e" offset="1"/>
    </radialGradient>
    <filter id="filter4038" color-interpolation-filters="sRGB">
      <feGaussianBlur id="feGaussianBlur4040" stdDeviation="3.0949929"/>
    </filter>
    <radialGradient id="radialGradient4074" xlink:href="#linearGradient3994" gradientUnits="userSpaceOnUse" cy="1026.8" cx="1120" gradientTransform="matrix(-.36750 .29037 .14381 .18202 669.25 353.45)" r="314.87"/>
    <radialGradient id="radialGradient4076" xlink:href="#linearGradient4004" gradientUnits="userSpaceOnUse" cy="786.62" cx="617.14" gradientTransform="matrix(.42195 -.0022685 -.0012472 -.23197 20.181 1105.2)" r="314.87"/>
    <radialGradient id="radialGradient4114" xlink:href="#linearGradient3994" gradientUnits="userSpaceOnUse" cy="1026.8" cx="1120" gradientTransform="matrix(.36750 -.29037 -.14381 -.18202 92.224 1502)" r="314.87"/>
    <radialGradient id="radialGradient4128" gradientUnits="userSpaceOnUse" cy="991.36" cx="511.43" gradientTransform="matrix(.60796 -.39019 .25059 .39045 -215.89 786.2)" r="157.43">
      <stop id="stop4124" stop-color="#19aeff" offset="0"/>
      <stop id="stop4126" stop-color="#19aeff" stop-opacity="0" offset="1"/>
    </radialGradient>
    <radialGradient id="radialGradient4226" xlink:href="#linearGradient3994" gradientUnits="userSpaceOnUse" cy="1026.8" cx="1120" gradientTransform="matrix(-.36750 -.29037 .14381 -.18202 583.53 1513.4)" r="314.87"/>
    <radialGradient id="radialGradient4228" xlink:href="#linearGradient4004" gradientUnits="userSpaceOnUse" cy="786.62" cx="617.14" gradientTransform="matrix(.42195 .0022685 -.0012472 .23197 -64.105 760.28)" r="314.87"/>
    <radialGradient id="radialGradient4242" xlink:href="#linearGradient3994" gradientUnits="userSpaceOnUse" cy="1026.8" cx="1120" gradientTransform="matrix(-.36750 .29037 .14381 .18202 534.96 362.03)" r="314.87"/>
    <radialGradient id="radialGradient4244" gradientUnits="userSpaceOnUse" cy="756.1" cx="694.64" gradientTransform="matrix(.41741 -.95278 .42496 .18617 -439.22 1460.5)" r="157.43">
      <stop id="stop4252" stop-color="#ccff42" offset="0"/>
      <stop id="stop4254" stop-color="#19aeff" offset="1"/>
    </radialGradient>
    <filter id="filter4312" width="1.1746" y="-.8831" x="-.087284" height="2.7662" color-interpolation-filters="sRGB">
      <feGaussianBlur id="feGaussianBlur4314" stdDeviation="11.422122"/>
    </filter>
    <filter id="filter4316" width="1.1746" y="-2.054" x="-.087284" height="5.1079" color-interpolation-filters="sRGB">
      <feGaussianBlur id="feGaussianBlur4318" stdDeviation="11.422122"/>
    </filter>
    <filter id="filter4330" width="1.0327" y="-.11763" x="-.016349" height="1.2353" color-interpolation-filters="sRGB">
      <feGaussianBlur id="feGaussianBlur4332" stdDeviation="4.1262185"/>
    </filter>
    <filter id="filter4419" width="1.3432" y="-1.6989" x="-.17159" height="4.3978" color-interpolation-filters="sRGB">
      <feGaussianBlur id="feGaussianBlur4421" stdDeviation="22.455057"/>
    </filter>
    <filter id="filter4563" width="4.7366" y="-.18229" x="-1.8683" height="1.3646" color-interpolation-filters="sRGB">
      <feGaussianBlur id="feGaussianBlur4565" stdDeviation="30.648682"/>
    </filter>
    <filter id="filter4567" width="4.0622" y="-.1711" x="-1.5311" height="1.3422" color-interpolation-filters="sRGB">
      <feGaussianBlur id="feGaussianBlur4569" stdDeviation="30.648682"/>
    </filter>
    <filter id="filter4571" width="1.8083" y="-.8998" x="-.40416" height="2.7996" color-interpolation-filters="sRGB">
      <feGaussianBlur id="feGaussianBlur4573" stdDeviation="30.648682"/>
    </filter>
    <filter id="filter4575" width="1.944" y="-.28345" x="-.47202" height="1.5669" color-interpolation-filters="sRGB">
      <feGaussianBlur id="feGaussianBlur4577" stdDeviation="30.648682"/>
    </filter>
    <filter id="filter4579" width="2.2047" y="-.21074" x="-.60233" height="1.4215" color-interpolation-filters="sRGB">
      <feGaussianBlur id="feGaussianBlur4581" stdDeviation="30.648682"/>
    </filter>
    <filter id="filter4583" width="1.8774" y="-.18865" x="-.4387" height="1.3773" color-interpolation-filters="sRGB">
      <feGaussianBlur id="feGaussianBlur4585" stdDeviation="30.648682"/>
    </filter>
    <filter id="filter4587" width="1.7518" y="-.25016" x="-.37588" height="1.5003" color-interpolation-filters="sRGB">
      <feGaussianBlur id="feGaussianBlur4589" stdDeviation="30.648682"/>
    </filter>
    <filter id="filter4591" width="2.0348" y="-.18254" x="-.5174" height="1.3651" color-interpolation-filters="sRGB">
      <feGaussianBlur id="feGaussianBlur4593" stdDeviation="30.648682"/>
    </filter>
  </defs>
  <g id="layer1" transform="translate(0 -752.36)">
    <g id="g4599" transform="matrix(.34763 .0954 .015846 .30525 368.91 987.82)">
      <path id="path4601" stroke="#dce7d0" stroke-width=".96823px" fill="#6f9052" d="m-449.98 274.9c-276.39-363-555.07-19.964-608.6 47.028 168.27 25.885 214.65 232.29 608.6-47.028z"/>
      <path id="path4603" opacity=".54146" d="m-460 266.65s-52.073-23.55-80-25.714c-176.87-13.706-525.71 82.857-525.71 82.857s343.14-73.4 517.14-71.429c29.9 0.34 88.57 14.29 88.57 14.29z" filter="url(#filter4330)" stroke-width="0" fill="#d0d0a6"/>
      <path id="path4605" stroke="#cfd48a" stroke-width="1.7" fill="none" d="m-542.86 238.08s-28.493-42.249-48.571-57.143c-19.184-14.23-44.476-17.642-65.714-28.571-24.689-12.705-71.429-42.857-71.429-42.857"/>
      <path id="path4607" stroke="#cfd48a" stroke-width="1.7" fill="none" d="m-680 246.65s-58.329-42.957-88.571-62.857c-21.422-14.096-40.594-34.844-65.714-40-6.5968-1.354-13.611 4.9867-20 2.8572-1.2778-0.42592-2.8572-2.8572-2.8572-2.8572"/>
      <path id="path4609" stroke="#cfd48a" stroke-width="1.7" fill="none" d="m-797.14 260.93s-31.811-37.718-54.286-42.857c-17.119-3.9147-35.134 17.976-51.429 11.429-6.3725-2.5605-6.4582-12.404-11.429-17.143-4.0191-3.8322-14.286-8.5714-14.286-8.5714"/>
      <path id="path4611" stroke="#cfd48a" stroke-width="1.7" fill="none" d="m-594.29 249.51s-46.852 40.369-51.429 68.571c-1.9297 11.891 15.186 22.84 11.429 34.286-6.1811 18.829-48.571 34.286-48.571 34.286"/>
      <path id="path4613" stroke="#cfd48a" stroke-width="1.7" fill="none" d="m-720 266.65s-25.287 69.646-54.286 88.571c-17.708 11.557-44.142-1.2732-62.857 8.5714-12.53 6.5913-28.571 31.429-28.571 31.429"/>
      <path id="path4615" stroke="#cfd48a" stroke-width="1.7" fill="none" d="m-868.57 298.08s-9.575 32.292-22.857 40c-8.2372 4.7803-19.08-0.78553-28.571 0-11.547 0.95564-34.286 5.7143-34.286 5.7143"/>
      <path id="path4617" stroke="#cfd48a" stroke-width="1.7" fill="none" d="m-885.71 223.79v-31.429"/>
      <path id="path4619" stroke="#cfd48a" stroke-width="1.7" fill="none" d="m-851.43 232.36s-49.512 26.622-74.286 20c-9.1083-2.4347-20-20-20-20l-17.143-14.286"/>
      <path id="path4621" stroke="#cfd48a" stroke-width="1.7" fill="none" d="m-931.43 258.08-57.143 8.5714"/>
      <path id="path4623" stroke="#cfd48a" stroke-width="1.7" fill="none" d="m-760 180.93s9.7707-16.759 8.5714-25.714c-1.8232-13.614-22.857-34.286-22.857-34.286"/>
      <path id="path4625" stroke="#cfd48a" stroke-width="1.7" fill="none" d="m-748.57 149.51 17.143-31.429"/>
      <path id="path4627" stroke="#cfd48a" stroke-width="1.7" fill="none" d="m-642.86 126.65s14.361 22.242 8.5714 31.429c-11.354 18.016-62.857 11.429-62.857 11.429"/>
      <path id="path4629" stroke="#cfd48a" stroke-width="1.7" fill="none" d="m-640 315.22-42.857 11.429"/>
      <path id="path4631" stroke="#cfd48a" stroke-width="1.7" fill="none" d="m-771.43 358.08-17.143 45.714"/>
      <path id="path4633" stroke="#000" stroke-width="1px" fill="#804d00" d="m-448.57 283.79 60 48.571 2.8571-17.143z"/>
    </g>
    <path id="path4597" opacity=".69756" stroke-linejoin="bevel" d="m781.72 917.45c36.667 0.2246 36.84-0.1246 55.527 0.3198 85.355 2.0299 142.23 9.809 120.89 18.395-11.325 4.5569-36.861 8.2909-74.979 10.396-33.706 1.8615-78.151 2.4281-118.21 1.4755-54.153-1.2879-92.142-5.1609-109.18-10.068-12.467-6.995-26.758-16.549 125.95-20.519z" transform="matrix(.5 0 0 .5 103.47 517.55)" filter="url(#filter4312)" stroke="#090000" stroke-linecap="round" stroke-dasharray="0.52224496, 0.26112248" stroke-width=".26112" fill="#0e232e"/>
    <path id="path4595" opacity=".69756" stroke-linejoin="bevel" d="m473.15 923.17c36.667 0.2246 36.84-0.1246 55.527 0.3198 85.355 2.0299 142.23 9.809 120.89 18.395-11.325 4.5569-36.861 8.2909-74.979 10.396-33.706 1.8615-78.151 2.4281-118.21 1.4755-54.153-1.2879-92.142-5.1609-109.18-10.068-12.467-6.995-26.758-16.549 125.95-20.519z" transform="matrix(.5 0 0 .5 103.47 517.55)" filter="url(#filter4312)" stroke="#090000" stroke-linecap="round" stroke-dasharray="0.52224496, 0.26112248" stroke-width=".26112" fill="#0e232e"/>
    <path id="path4256" stroke-linejoin="bevel" d="m141.65 1137.5c-36.667-0.2295-36.84 0.1273-55.527-0.3268-85.355-2.0744-142.23-10.024-120.89-18.798 11.325-4.6568 36.861-8.4726 74.979-10.624 33.706-1.9024 78.151-2.4813 118.21-1.5078 54.153 1.316 92.142 5.2739 109.18 10.289 12.467 7.1483 26.758 16.912-125.95 20.968z" transform="matrix(.43806 0 0 .32351 203.62 666.42)" filter="url(#filter4419)" stroke="#090000" stroke-linecap="round" stroke-dasharray="0.52793691, 0.26396846" stroke-width=".26397" fill="#0e232e"/>
    <g id="g4383" transform="matrix(-.26847 .155 .12165 .21071 240.13 876.08)">
      <path id="path4385" stroke="#dce7d0" stroke-width=".96823px" fill="#6f9052" d="m-449.98 274.9c-276.39-363-555.07-19.964-608.6 47.028 168.27 25.885 214.65 232.29 608.6-47.028z"/>
      <path id="path4387" opacity=".54146" d="m-460 266.65s-52.073-23.55-80-25.714c-176.87-13.706-525.71 82.857-525.71 82.857s343.14-73.4 517.14-71.429c29.9 0.34 88.57 14.29 88.57 14.29z" filter="url(#filter4330)" stroke-width="0" fill="#d0d0a6"/>
      <path id="path4389" stroke="#cfd48a" stroke-width="1.7" fill="none" d="m-542.86 238.08s-28.493-42.249-48.571-57.143c-19.184-14.23-44.476-17.642-65.714-28.571-24.689-12.705-71.429-42.857-71.429-42.857"/>
      <path id="path4391" stroke="#cfd48a" stroke-width="1.7" fill="none" d="m-680 246.65s-58.329-42.957-88.571-62.857c-21.422-14.096-40.594-34.844-65.714-40-6.5968-1.354-13.611 4.9867-20 2.8572-1.2778-0.42592-2.8572-2.8572-2.8572-2.8572"/>
      <path id="path4393" stroke="#cfd48a" stroke-width="1.7" fill="none" d="m-797.14 260.93s-31.811-37.718-54.286-42.857c-17.119-3.9147-35.134 17.976-51.429 11.429-6.3725-2.5605-6.4582-12.404-11.429-17.143-4.0191-3.8322-14.286-8.5714-14.286-8.5714"/>
      <path id="path4395" stroke="#cfd48a" stroke-width="1.7" fill="none" d="m-594.29 249.51s-46.852 40.369-51.429 68.571c-1.9297 11.891 15.186 22.84 11.429 34.286-6.1811 18.829-48.571 34.286-48.571 34.286"/>
      <path id="path4397" stroke="#cfd48a" stroke-width="1.7" fill="none" d="m-720 266.65s-25.287 69.646-54.286 88.571c-17.708 11.557-44.142-1.2732-62.857 8.5714-12.53 6.5913-28.571 31.429-28.571 31.429"/>
      <path id="path4399" stroke="#cfd48a" stroke-width="1.7" fill="none" d="m-868.57 298.08s-9.575 32.292-22.857 40c-8.2372 4.7803-19.08-0.78553-28.571 0-11.547 0.95564-34.286 5.7143-34.286 5.7143"/>
      <path id="path4401" stroke="#cfd48a" stroke-width="1.7" fill="none" d="m-885.71 223.79v-31.429"/>
      <path id="path4403" stroke="#cfd48a" stroke-width="1.7" fill="none" d="m-851.43 232.36s-49.512 26.622-74.286 20c-9.1083-2.4347-20-20-20-20l-17.143-14.286"/>
      <path id="path4405" stroke="#cfd48a" stroke-width="1.7" fill="none" d="m-931.43 258.08-57.143 8.5714"/>
      <path id="path4407" stroke="#cfd48a" stroke-width="1.7" fill="none" d="m-760 180.93s9.7707-16.759 8.5714-25.714c-1.8232-13.614-22.857-34.286-22.857-34.286"/>
      <path id="path4409" stroke="#cfd48a" stroke-width="1.7" fill="none" d="m-748.57 149.51 17.143-31.429"/>
      <path id="path4411" stroke="#cfd48a" stroke-width="1.7" fill="none" d="m-642.86 126.65s14.361 22.242 8.5714 31.429c-11.354 18.016-62.857 11.429-62.857 11.429"/>
      <path id="path4413" stroke="#cfd48a" stroke-width="1.7" fill="none" d="m-640 315.22-42.857 11.429"/>
      <path id="path4415" stroke="#cfd48a" stroke-width="1.7" fill="none" d="m-771.43 358.08-17.143 45.714"/>
      <path id="path4417" stroke="#000" stroke-width="1px" fill="#804d00" d="m-448.57 283.79 60 48.571 2.8571-17.143z"/>
    </g>
    <path id="path4268" opacity=".49756" stroke-linejoin="bevel" d="m747.43 900.03c36.667 0.0966 36.84-0.0536 55.527 0.1375 85.355 0.87275 142.23 4.2174 120.89 7.9091-11.325 1.9592-36.861 3.5647-74.979 4.4698-33.706 0.80037-78.151 1.0439-118.21 0.63438-54.153-0.55371-92.142-2.2189-109.18-4.3288-12.467-3.0075-26.758-7.1153 125.95-8.8219z" transform="matrix(.5 0 0 .5 103.47 517.55)" filter="url(#filter4316)" stroke="#090000" stroke-linecap="round" stroke-dasharray="0.34243916, 0.17121958" stroke-width=".17122" fill="#0e232e"/>
    <path id="path4144" d="m1117.9 656.9 4.192-9.0789c-27.248-11.652-56.08-18.534-85.034-22.535-29.379-4.0657-59.01-5.1931-88.49-4.3537 29.48 0.8394 58.887 3.6501 87.658 9.3209 28.356 5.5946 56.167 13.939 81.674 26.647z" fill-rule="evenodd" transform="matrix(.23849 0 0 .23849 48.233 749.07)" filter="url(#filter3966)" fill="#282d46"/>
    <path id="path4148" d="m704.32 613.29-2.9158 9.5655c16.344 4.0137 32.327 10.119 47.788 17.476 12.595 5.9976 24.861 12.784 36.527 20.599-10.768-9.0114-22.34-17.145-34.383-24.542-14.789-9.0898-30.425-17.072-47.017-23.098z" fill-rule="evenodd" transform="matrix(-.23849 0 0 .23849 437.33 759.07)" filter="url(#filter3958)" fill="#282d46"/>
    <path id="path4194" stroke-linejoin="bevel" d="m224.29 847.73c-18.334 1.0542-18.42-0.5846-27.763 1.501-42.677 9.5264-71.114 46.035-60.444 86.331 5.6625 21.386 18.431 38.91 37.49 48.79 16.853 8.7363 39.076 11.395 59.103 6.9245 27.076-6.044 46.071-24.22 54.592-47.251 6.2336-32.828 13.379-77.667-62.977-96.296z" stroke="#090000" stroke-linecap="round" stroke-dasharray="0.8, 0.4" stroke-width=".4" fill="url(#radialGradient4242)"/>
    <path id="path4196" d="m709.31 1054.8 9.956 0.9374c5.0571-62.548 13.651-124.99 31.577-185.06 17.457-58.529 44.443-114.41 80.588-163.98-37.461 48.577-66.114 103.95-85.298 162.5-19.67 60.055-30.08 122.83-36.823 185.6z" fill-rule="evenodd" transform="matrix(.23849 0 0 -.23849 1.0901 1117.8)" filter="url(#filter3990)" fill="#282d46"/>
    <path id="path4198" d="m815.04 1077.4 9.9114 1.3282c16.276-133.94 30.997-268.64 29.33-403.52-1.6667 134.88-19.691 268.77-39.241 402.19z" fill-rule="evenodd" transform="matrix(.23849 0 0 -.23849 1.0901 1117.8)" filter="url(#filter3986)" fill="#282d46"/>
    <path id="path4200" d="m909.47 1090.8 9.64-2.659c-19.799-68.623-31.407-139.61-38.141-211-6.7697-71.783-8.7003-144.03-9.5359-216.24-0.83562 72.209-0.57941 144.51 4.5392 216.66 5.0891 71.752 15.107 143.41 33.498 213.24z" fill-rule="evenodd" transform="matrix(.23849 0 0 -.23849 1.0901 1117.8)" filter="url(#filter3982)" fill="#282d46"/>
    <path id="path4202" d="m980.72 1069.4 9.9976 0.2186c0.18302-17.962-1.9048-35.838-5.7053-53.256-3.8409-17.601-9.367-34.731-15.891-51.382 0 0-0.00001 0-0.00001-0.00001-13.517-34.488-31.096-66.988-48.612-99.278 0 0 0-0.00001-0.00001-0.00002-17.463-32.211-35.139-64.298-48.942-98.127-6.6157-16.212-12.312-32.823-16.386-49.861-3.9962-16.711-6.4051-33.845-6.6052-51.064-0.20013 17.219 1.8101 34.456 5.4342 51.329 3.6947 17.203 9.0292 34.038 15.301 50.485 13.086 34.313 30.086 66.974 46.794 99.559 16.751 32.691 33.485 65.403 45.964 99.624 0 0.00001 0.00001 0.00001 0.00001 0.00002 6.0231 16.512 11.034 33.358 14.347 50.484 3.2762 16.936 4.8878 34.162 4.3042 51.266z" fill-rule="evenodd" transform="matrix(.23849 0 0 -.23849 1.0901 1117.8)" filter="url(#filter3978)" fill="#282d46"/>
    <path id="path4204" d="m1066.6 1013.7 9.6292-2.6976c-20-68.41-49.2-133.48-79.46-197.55-29.84-63.08-61.51-125.23-88.17-189.66 25.128 65.046 55.364 128.05 83.656 191.73 28.745 64.718 56.223 130.18 74.386 198.19z" fill-rule="evenodd" transform="matrix(.23849 0 0 -.23849 1.0901 1117.8)" filter="url(#filter3974)" fill="#282d46"/>
    <path id="path4206" d="m1155.7 897.83 8.5318-5.2163c-31.456-49.83-65.405-97.87-99.212-145.92-33.085-47.028-66.196-94.026-96.483-142.9 28.873 49.724 60.674 97.735 92.397 145.69 32.417 49.006 64.932 97.933 94.765 148.35z" fill-rule="evenodd" transform="matrix(.23849 0 0 -.23849 52.519 1100.7)" filter="url(#filter3970)" fill="#282d46"/>
    <path id="path4210" d="m944.55 551.57-9.103-4.1396c-6.7458 17.027-15.539 33.412-25.101 49.393-8.1925 13.684-17.062 27.135-24.633 41.249 8.8899-13.322 18.928-25.747 28.473-38.691 11.142-15.101 21.65-30.841 30.364-47.811z" fill-rule="evenodd" transform="matrix(-.23849 0 0 -.23849 495.9 1060.7)" filter="url(#filter3962)" fill="#282d46"/>
    <path id="path4212" d="m704.32 613.29-2.9158 9.5655c16.344 4.0137 32.327 10.119 47.788 17.476 12.595 5.9976 24.861 12.784 36.527 20.599-10.768-9.0114-22.34-17.145-34.383-24.542-14.789-9.0898-30.425-17.072-47.017-23.098z" fill-rule="evenodd" transform="matrix(-.23849 0 0 -.23849 495.9 1060.7)" filter="url(#filter3958)" fill="#282d46"/>
    <path id="path4214" d="m611.01 698.81 0.82942 9.9655c27.877-3.1888 55.95-5.2782 84.066-7.0163 26.096-1.6126 52.221-2.8785 78.376-3.6808-26.155-0.80231-52.337-1.141-78.525-1.1308-28.211 0.0103-56.463 0.37683-84.746 1.8623z" fill-rule="evenodd" transform="matrix(.23849 0 0 -.23849 108.23 1069.2)" filter="url(#filter3954)" fill="#282d46"/>
    <path id="path4216" d="m583.71 802.07 4.0008 9.1648c14.374-6.7132 28.01-14.521 41.538-22.253 15.759-9.0006 31.391-18.115 47.291-26.708 15.441-8.342 31.084-16.29 47.402-22.67h0.00001c7.1698-2.8029 14.466-5.2939 21.939-7.1538 6.4892-1.6139 13.119-2.7701 19.829-2.9403-6.7093-0.17014-13.44 0.64877-20.05 1.9437-7.6149 1.4907-15.103 3.6268-22.466 6.0849-16.755 5.5928-32.945 12.801-48.862 20.392-16.409 7.8223-32.544 16.162-48.699 24.333-13.913 7.0332-27.739 14.053-41.924 19.807z" fill-rule="evenodd" transform="matrix(.23849 0 0 -.23849 106.8 1070.7)" filter="url(#filter3950)" fill="#282d46"/>
    <path id="path4218" d="m629.88 961.42 8.8092 4.7327c11.637-22.552 21.69-45.733 31.617-68.853v-0.00001c10.42-24.26 20.645-48.54 31.91-72.322 0.00001 0 0.00001-0.00001 0.00001-0.00001 10.889-22.981 22.688-45.557 36.901-66.618 13.023-19.291 28.147-37.395 46.597-51.717-18.915 13.701-34.763 31.397-48.504 50.383-15.002 20.721-27.659 43.07-39.356 65.795-12.111 23.521-23.18 47.537-34.383 71.406v0.00002c-10.686 22.761-21.422 45.435-33.59 67.192z" fill-rule="evenodd" transform="matrix(.23849 0 0 -.23849 52.519 1100.7)" filter="url(#filter3946)" fill="#282d46"/>
    <path id="path4220" opacity=".49756" stroke-linejoin="bevel" d="m224.29 847.73c-18.334 1.0542-18.42-0.5846-27.763 1.501-42.677 9.5264-71.114 46.035-60.444 86.331 5.6625 21.386 18.431 38.91 37.49 48.79 16.853 8.7363 39.076 11.395 59.103 6.9245 27.076-6.044 46.071-24.22 54.592-47.251 6.2336-32.828 13.379-77.667-62.977-96.296z" stroke="#090000" stroke-linecap="round" stroke-dasharray="0.8, 0.4" stroke-width=".4" fill="url(#radialGradient4244)"/>
    <path id="path4222" d="m801.31 606.13-35.515 28.214 35.515 43.603 73.246 30.91 73.887-46.299-65.956-51.297-10.147-35.908-50.735 15.389-38.613 7.6946z" transform="matrix(-.25 0 0 -.25 505.96 1070.1)" filter="url(#filter4012)" stroke="#88c1e6" stroke-width="3.563" fill="url(#radialGradient3896)"/>
    <path id="path4224" opacity=".44878" d="m933.04 603.16 43.77 30.544-43.77 47.204-90.271 33.462-91.061-50.122 81.286-55.534 12.506-38.874 62.528 16.66 47.589 8.33z" transform="matrix(-.25 0 0 -.25 505.96 1070.1)" filter="url(#filter4038)" stroke-width="0" fill="url(#radialGradient4036)"/>
    <path id="path3097" stroke-linejoin="bevel" d="m477.18 834.87c18.334 1.0542 18.42-0.5846 27.763 1.501 42.677 9.5264 71.114 46.035 60.444 86.331-5.6625 21.386-18.431 38.91-37.49 48.79-16.853 8.7363-39.076 11.395-59.103 6.9245-27.076-6.044-46.071-24.22-54.592-47.251-6.2336-32.828-13.379-77.667 62.977-96.296z" stroke="#090000" stroke-linecap="round" stroke-dasharray="0.8, 0.4" stroke-width=".4" fill="url(#radialGradient4000)"/>
    <path id="path3898" opacity=".32683" d="m709.31 1054.8 9.956 0.9374c5.0571-62.548 13.651-124.99 31.577-185.06 17.457-58.529 44.443-114.41 80.588-163.98-37.461 48.577-66.114 103.95-85.298 162.5-19.67 60.055-30.08 122.83-36.823 185.6z" fill-rule="evenodd" transform="matrix(-.23849 0 0 -.23849 700.38 1104.9)" filter="url(#filter3990)" fill="#282d46"/>
    <path id="path3902" d="m815.04 1077.4 9.9114 1.3282c16.276-133.94 30.997-268.64 29.33-403.52-1.6667 134.88-19.691 268.77-39.241 402.19z" fill-rule="evenodd" transform="matrix(-.23849 0 0 -.23849 700.38 1104.9)" filter="url(#filter3986)" fill="#282d46"/>
    <path id="path3906" opacity=".32683" d="m909.47 1090.8 9.64-2.659c-19.799-68.623-31.407-139.61-38.141-211-6.7697-71.783-8.7003-144.03-9.5359-216.24-0.83562 72.209-0.57941 144.51 4.5392 216.66 5.0891 71.752 15.107 143.41 33.498 213.24z" fill-rule="evenodd" transform="matrix(-.23849 0 0 -.23849 700.38 1104.9)" filter="url(#filter3982)" fill="#282d46"/>
    <path id="path3910" opacity=".32683" d="m980.72 1069.4 9.9976 0.2186c0.18302-17.962-1.9048-35.838-5.7053-53.256-3.8409-17.601-9.367-34.731-15.891-51.382 0 0-0.00001 0-0.00001-0.00001-13.517-34.488-31.096-66.988-48.612-99.278 0 0 0-0.00001-0.00001-0.00002-17.463-32.211-35.139-64.298-48.942-98.127-6.6157-16.212-12.312-32.823-16.386-49.861-3.9962-16.711-6.4051-33.845-6.6052-51.064-0.20013 17.219 1.8101 34.456 5.4342 51.329 3.6947 17.203 9.0292 34.038 15.301 50.485 13.086 34.313 30.086 66.974 46.794 99.559 16.751 32.691 33.485 65.403 45.964 99.624 0 0.00001 0.00001 0.00001 0.00001 0.00002 6.0231 16.512 11.034 33.358 14.347 50.484 3.2762 16.936 4.8878 34.162 4.3042 51.266z" fill-rule="evenodd" transform="matrix(-.23849 0 0 -.23849 700.38 1104.9)" filter="url(#filter3978)" fill="#282d46"/>
    <path id="path3914" d="m1066.6 1013.7 9.6292-2.6976c-20-68.41-49.2-133.48-79.46-197.55-29.84-63.08-61.51-125.23-88.17-189.66 25.128 65.046 55.364 128.05 83.656 191.73 28.745 64.718 56.223 130.18 74.386 198.19z" fill-rule="evenodd" transform="matrix(-.23849 0 0 -.23849 700.38 1104.9)" filter="url(#filter3974)" fill="#282d46"/>
    <path id="path3918" d="m1155.7 897.83 8.5318-5.2163c-31.456-49.83-65.405-97.87-99.212-145.92-33.085-47.028-66.196-94.026-96.483-142.9 28.873 49.724 60.674 97.735 92.397 145.69 32.417 49.006 64.932 97.933 94.765 148.35z" fill-rule="evenodd" transform="matrix(-.23849 0 0 -.23849 700.38 1104.9)" filter="url(#filter3970)" fill="#282d46"/>
    <path id="path3922" opacity=".59024" d="m1117.9 656.9 4.192-9.0789c-27.248-11.652-56.08-18.534-85.034-22.535-29.379-4.0657-59.01-5.1931-88.49-4.3537 29.48 0.8394 58.887 3.6501 87.658 9.3209 28.356 5.5946 56.167 13.939 81.674 26.647z" fill-rule="evenodd" transform="matrix(-.23849 0 0 -.23849 684.67 1067.8)" filter="url(#filter3966)" fill="#282d46"/>
    <path id="path3926" d="m944.55 551.57-9.103-4.1396c-6.7458 17.027-15.539 33.412-25.101 49.393-8.1925 13.684-17.062 27.135-24.633 41.249 8.8899-13.322 18.928-25.747 28.473-38.691 11.142-15.101 21.65-30.841 30.364-47.811z" fill-rule="evenodd" transform="matrix(.23849 0 0 -.23849 311.29 1094.9)" filter="url(#filter3962)" fill="#282d46"/>
    <path id="path3930" d="m704.32 613.29-2.9158 9.5655c16.344 4.0137 32.327 10.119 47.788 17.476 12.595 5.9976 24.861 12.784 36.527 20.599-10.768-9.0114-22.34-17.145-34.383-24.542-14.789-9.0898-30.425-17.072-47.017-23.098z" fill-rule="evenodd" transform="matrix(.23849 0 0 -.23849 295.57 1057.8)" filter="url(#filter3958)" fill="#282d46"/>
    <path id="path3934" d="m611.01 698.81 0.82942 9.9655c27.877-3.1888 55.95-5.2782 84.066-7.0163 26.096-1.6126 52.221-2.8785 78.376-3.6808-26.155-0.80231-52.337-1.141-78.525-1.1308-28.211 0.0103-56.463 0.37683-84.746 1.8623z" fill-rule="evenodd" transform="matrix(-.23849 0 0 -.23849 698.95 1103.5)" filter="url(#filter3954)" fill="#282d46"/>
    <path id="path3938" d="m583.71 802.07 4.0008 9.1648c14.374-6.7132 28.01-14.521 41.538-22.253 15.759-9.0006 31.391-18.115 47.291-26.708 15.441-8.342 31.084-16.29 47.402-22.67h0.00001c7.1698-2.8029 14.466-5.2939 21.939-7.1538 6.4892-1.6139 13.119-2.7701 19.829-2.9403-6.7093-0.17014-13.44 0.64877-20.05 1.9437-7.6149 1.4907-15.103 3.6268-22.466 6.0849-16.755 5.5928-32.945 12.801-48.862 20.392-16.409 7.8223-32.544 16.162-48.699 24.333-13.913 7.0332-27.739 14.053-41.924 19.807z" fill-rule="evenodd" transform="matrix(-.23849 0 0 -.23849 700.38 1104.9)" filter="url(#filter3950)" fill="#282d46"/>
    <path id="path3942" d="m629.88 961.42 8.8092 4.7327c11.637-22.552 21.69-45.733 31.617-68.853v-0.00001c10.42-24.26 20.645-48.54 31.91-72.322 0.00001 0 0.00001-0.00001 0.00001-0.00001 10.889-22.981 22.688-45.557 36.901-66.618 13.023-19.291 28.147-37.395 46.597-51.717-18.915 13.701-34.763 31.397-48.504 50.383-15.002 20.721-27.659 43.07-39.356 65.795-12.111 23.521-23.18 47.537-34.383 71.406v0.00002c-10.686 22.761-21.422 45.435-33.59 67.192z" fill-rule="evenodd" transform="matrix(-.23849 0 0 -.23849 700.38 1104.9)" filter="url(#filter3946)" fill="#282d46"/>
    <path id="path4002" opacity=".32683" stroke-linejoin="bevel" d="m477.18 834.87c18.334 1.0542 18.42-0.5846 27.763 1.501 42.677 9.5264 71.114 46.035 60.444 86.331-5.6625 21.386-18.431 38.91-37.49 48.79-16.853 8.7363-39.076 11.395-59.103 6.9245-27.076-6.044-46.071-24.22-54.592-47.251-6.2336-32.828-13.379-77.667 62.977-96.296z" stroke="#8651c7" stroke-linecap="round" stroke-dasharray="0.8, 0.4" stroke-width=".4" fill="url(#radialGradient4010)"/>
    <path id="path3888" d="m801.31 606.13-35.515 28.214 35.515 43.603 73.246 30.91 73.887-46.299-65.956-51.297-10.147-35.908-50.735 15.389-38.613 7.6946z" transform="matrix(.25 0 0 -.25 301.22 1104.4)" filter="url(#filter4012)" stroke="#88c1e6" stroke-width="3.563" fill="url(#radialGradient3896)"/>
    <path id="path4016" opacity=".44878" d="m933.04 603.16 43.77 30.544-43.77 47.204-90.271 33.462-91.061-50.122 81.286-55.534 12.506-38.874 62.528 16.66 47.589 8.33z" transform="matrix(.25 0 0 -.25 301.22 1104.4)" filter="url(#filter4038)" stroke-width="0" fill="url(#radialGradient4036)"/>
    <path id="path4042" stroke-linejoin="bevel" d="m358.58 839.16c-18.334 1.0542-18.42-0.5846-27.763 1.501-42.677 9.5264-71.114 46.035-60.444 86.331 5.6625 21.386 18.431 38.91 37.49 48.79 16.853 8.7363 39.076 11.395 59.103 6.9245 27.076-6.044 46.071-24.22 54.592-47.251 6.2336-32.828 13.379-77.667-62.977-96.296z" stroke="#090000" stroke-linecap="round" stroke-dasharray="0.8, 0.4" stroke-width=".4" fill="url(#radialGradient4074)"/>
    <path id="path4044" opacity=".5122" d="m709.31 1054.8 9.956 0.9374c5.0571-62.548 13.651-124.99 31.577-185.06 17.457-58.529 44.443-114.41 80.588-163.98-37.461 48.577-66.114 103.95-85.298 162.5-19.67 60.055-30.08 122.83-36.823 185.6z" fill-rule="evenodd" transform="matrix(.23849 0 0 -.23849 135.38 1109.2)" filter="url(#filter3990)" fill="#282d46"/>
    <path id="path4046" opacity=".5122" d="m815.04 1077.4 9.9114 1.3282c16.276-133.94 30.997-268.64 29.33-403.52-1.6667 134.88-19.691 268.77-39.241 402.19z" fill-rule="evenodd" transform="matrix(.23849 0 0 -.23849 135.38 1109.2)" filter="url(#filter3986)" fill="#282d46"/>
    <path id="path4048" opacity=".5122" d="m909.47 1090.8 9.64-2.659c-19.799-68.623-31.407-139.61-38.141-211-6.7697-71.783-8.7003-144.03-9.5359-216.24-0.83562 72.209-0.57941 144.51 4.5392 216.66 5.0891 71.752 15.107 143.41 33.498 213.24z" fill-rule="evenodd" transform="matrix(.23849 0 0 -.23849 135.38 1109.2)" filter="url(#filter3982)" fill="#282d46"/>
    <path id="path4050" opacity=".5122" d="m980.72 1069.4 9.9976 0.2186c0.18302-17.962-1.9048-35.838-5.7053-53.256-3.8409-17.601-9.367-34.731-15.891-51.382 0 0-0.00001 0-0.00001-0.00001-13.517-34.488-31.096-66.988-48.612-99.278 0 0 0-0.00001-0.00001-0.00002-17.463-32.211-35.139-64.298-48.942-98.127-6.6157-16.212-12.312-32.823-16.386-49.861-3.9962-16.711-6.4051-33.845-6.6052-51.064-0.20013 17.219 1.8101 34.456 5.4342 51.329 3.6947 17.203 9.0292 34.038 15.301 50.485 13.086 34.313 30.086 66.974 46.794 99.559 16.751 32.691 33.485 65.403 45.964 99.624 0 0.00001 0.00001 0.00001 0.00001 0.00002 6.0231 16.512 11.034 33.358 14.347 50.484 3.2762 16.936 4.8878 34.162 4.3042 51.266z" fill-rule="evenodd" transform="matrix(.23849 0 0 -.23849 135.38 1109.2)" filter="url(#filter3978)" fill="#282d46"/>
    <path id="path4052" opacity=".5122" d="m1066.6 1013.7 9.6292-2.6976c-20-68.41-49.2-133.48-79.46-197.55-29.84-63.08-61.51-125.23-88.17-189.66 25.128 65.046 55.364 128.05 83.656 191.73 28.745 64.718 56.223 130.18 74.386 198.19z" fill-rule="evenodd" transform="matrix(.23849 0 0 -.23849 135.38 1109.2)" filter="url(#filter3974)" fill="#282d46"/>
    <path id="path4054" opacity=".5122" d="m1155.7 897.83 8.5318-5.2163c-31.456-49.83-65.405-97.87-99.212-145.92-33.085-47.028-66.196-94.026-96.483-142.9 28.873 49.724 60.674 97.735 92.397 145.69 32.417 49.006 64.932 97.933 94.765 148.35z" fill-rule="evenodd" transform="matrix(.23849 0 0 -.23849 135.38 1109.2)" filter="url(#filter3970)" fill="#282d46"/>
    <path id="path4066" d="m629.88 961.42 8.8092 4.7327c11.637-22.552 21.69-45.733 31.617-68.853v-0.00001c10.42-24.26 20.645-48.54 31.91-72.322 0.00001 0 0.00001-0.00001 0.00001-0.00001 10.889-22.981 22.688-45.557 36.901-66.618 13.023-19.291 28.147-37.395 46.597-51.717-18.915 13.701-34.763 31.397-48.504 50.383-15.002 20.721-27.659 43.07-39.356 65.795-12.111 23.521-23.18 47.537-34.383 71.406v0.00002c-10.686 22.761-21.422 45.435-33.59 67.192z" fill-rule="evenodd" transform="matrix(.23849 0 0 -.23849 135.38 1109.2)" filter="url(#filter3946)" fill="#282d46"/>
    <path id="path4068" opacity=".49756" stroke-linejoin="bevel" d="m358.58 839.16c-18.334 1.0542-18.42-0.5846-27.763 1.501-42.677 9.5264-71.114 46.035-60.444 86.331 5.6625 21.386 18.431 38.91 37.49 48.79 16.853 8.7363 39.076 11.395 59.103 6.9245 27.076-6.044 46.071-24.22 54.592-47.251 6.2336-32.828 13.379-77.667-62.977-96.296z" stroke="#090000" stroke-linecap="round" stroke-dasharray="0.8, 0.4" stroke-width=".4" fill="url(#radialGradient4076)"/>
    <path id="path4082" stroke-linejoin="bevel" d="m402.9 1016.3c18.334-1.0542 18.42 0.5846 27.763-1.5009 42.677-9.5264 71.114-46.035 60.444-86.331-5.6625-21.386-18.431-38.91-37.49-48.79-16.853-8.7363-39.076-11.395-59.103-6.9245-27.076 6.044-46.071 24.22-54.592 47.251-6.2336 32.828-13.379 77.667 62.977 96.296z" stroke="#090000" stroke-linecap="round" stroke-dasharray="0.8, 0.4" stroke-width=".4" fill="url(#radialGradient4114)"/>
    <path id="path4084" opacity=".59024" d="m709.31 1054.8 9.956 0.9374c5.0571-62.548 13.651-124.99 31.577-185.06 17.457-58.529 44.443-114.41 80.588-163.98-37.461 48.577-66.114 103.95-85.298 162.5-19.67 60.055-30.08 122.83-36.823 185.6z" fill-rule="evenodd" transform="matrix(-.23849 0 0 .23849 626.1 746.21)" filter="url(#filter3990)" fill="#282d46"/>
    <path id="path4086" opacity=".5122" d="m815.04 1077.4 9.9114 1.3282c16.276-133.94 30.997-268.64 29.33-403.52-1.6667 134.88-19.691 268.77-39.241 402.19z" fill-rule="evenodd" transform="matrix(-.23849 0 0 .23849 626.1 746.21)" filter="url(#filter3986)" fill="#282d46"/>
    <path id="path4088" opacity=".5122" d="m909.47 1090.8 9.64-2.659c-19.799-68.623-31.407-139.61-38.141-211-6.7697-71.783-8.7003-144.03-9.5359-216.24-0.83562 72.209-0.57941 144.51 4.5392 216.66 5.0891 71.752 15.107 143.41 33.498 213.24z" fill-rule="evenodd" transform="matrix(-.23849 0 0 .23849 626.1 746.21)" filter="url(#filter3982)" fill="#282d46"/>
    <path id="path4090" opacity=".5122" d="m980.72 1069.4 9.9976 0.2186c0.18302-17.962-1.9048-35.838-5.7053-53.256-3.8409-17.601-9.367-34.731-15.891-51.382 0 0-0.00001 0-0.00001-0.00001-13.517-34.488-31.096-66.988-48.612-99.278 0 0 0-0.00001-0.00001-0.00002-17.463-32.211-35.139-64.298-48.942-98.127-6.6157-16.212-12.312-32.823-16.386-49.861-3.9962-16.711-6.4051-33.845-6.6052-51.064-0.20013 17.219 1.8101 34.456 5.4342 51.329 3.6947 17.203 9.0292 34.038 15.301 50.485 13.086 34.313 30.086 66.974 46.794 99.559 16.751 32.691 33.485 65.403 45.964 99.624 0 0.00001 0.00001 0.00001 0.00001 0.00002 6.0231 16.512 11.034 33.358 14.347 50.484 3.2762 16.936 4.8878 34.162 4.3042 51.266z" fill-rule="evenodd" transform="matrix(-.23849 0 0 .23849 626.1 746.21)" filter="url(#filter3978)" fill="#282d46"/>
    <path id="path4092" opacity=".5122" d="m1066.6 1013.7 9.6292-2.6976c-20-68.41-49.2-133.48-79.46-197.55-29.84-63.08-61.51-125.23-88.17-189.66 25.128 65.046 55.364 128.05 83.656 191.73 28.745 64.718 56.223 130.18 74.386 198.19z" fill-rule="evenodd" transform="matrix(-.23849 0 0 .23849 626.1 746.21)" filter="url(#filter3974)" fill="#282d46"/>
    <path id="path4094" opacity=".5122" d="m1155.7 897.83 8.5318-5.2163c-31.456-49.83-65.405-97.87-99.212-145.92-33.085-47.028-66.196-94.026-96.483-142.9 28.873 49.724 60.674 97.735 92.397 145.69 32.417 49.006 64.932 97.933 94.765 148.35z" fill-rule="evenodd" transform="matrix(-.23849 0 0 .23849 626.1 746.21)" filter="url(#filter3970)" fill="#282d46"/>
    <path id="path4096" opacity=".5122" d="m1117.9 656.9 4.192-9.0789c-27.248-11.652-56.08-18.534-85.034-22.535-29.379-4.0657-59.01-5.1931-88.49-4.3537 29.48 0.8394 58.887 3.6501 87.658 9.3209 28.356 5.5946 56.167 13.939 81.674 26.647z" fill-rule="evenodd" transform="matrix(-.23849 0 0 .23849 626.1 746.21)" filter="url(#filter3966)" fill="#282d46"/>
    <path id="path4098" d="m944.55 551.57-9.103-4.1396c-6.7458 17.027-15.539 33.412-25.101 49.393-8.1925 13.684-17.062 27.135-24.633 41.249 8.8899-13.322 18.928-25.747 28.473-38.691 11.142-15.101 21.65-30.841 30.364-47.811z" fill-rule="evenodd" transform="matrix(.23849 0 0 .23849 237 756.21)" filter="url(#filter3962)" fill="#282d46"/>
    <path id="path4100" opacity=".5122" d="m704.32 613.29-2.9158 9.5655c16.344 4.0137 32.327 10.119 47.788 17.476 12.595 5.9976 24.861 12.784 36.527 20.599-10.768-9.0114-22.34-17.145-34.383-24.542-14.789-9.0898-30.425-17.072-47.017-23.098z" fill-rule="evenodd" transform="matrix(.23849 0 0 .23849 237 756.21)" filter="url(#filter3958)" fill="#282d46"/>
    <path id="path4102" opacity=".59024" d="m611.01 698.81 0.82942 9.9655c27.877-3.1888 55.95-5.2782 84.066-7.0163 26.096-1.6126 52.221-2.8785 78.376-3.6808-26.155-0.80231-52.337-1.141-78.525-1.1308-28.211 0.0103-56.463 0.37683-84.746 1.8623z" fill-rule="evenodd" transform="matrix(-.23849 0 0 .23849 624.67 747.64)" filter="url(#filter3954)" fill="#282d46"/>
    <path id="path4104" opacity=".59024" d="m583.71 802.07 4.0008 9.1648c14.374-6.7132 28.01-14.521 41.538-22.253 15.759-9.0006 31.391-18.115 47.291-26.708 15.441-8.342 31.084-16.29 47.402-22.67h0.00001c7.1698-2.8029 14.466-5.2939 21.939-7.1538 6.4892-1.6139 13.119-2.7701 19.829-2.9403-6.7093-0.17014-13.44 0.64877-20.05 1.9437-7.6149 1.4907-15.103 3.6268-22.466 6.0849-16.755 5.5928-32.945 12.801-48.862 20.392-16.409 7.8223-32.544 16.162-48.699 24.333-13.913 7.0332-27.739 14.053-41.924 19.807z" fill-rule="evenodd" transform="matrix(-.23849 0 0 .23849 626.1 746.21)" filter="url(#filter3950)" fill="#282d46"/>
    <path id="path4106" opacity=".59024" d="m629.88 961.42 8.8092 4.7327c11.637-22.552 21.69-45.733 31.617-68.853v-0.00001c10.42-24.26 20.645-48.54 31.91-72.322 0.00001 0 0.00001-0.00001 0.00001-0.00001 10.889-22.981 22.688-45.557 36.901-66.618 13.023-19.291 28.147-37.395 46.597-51.717-18.915 13.701-34.763 31.397-48.504 50.383-15.002 20.721-27.659 43.07-39.356 65.795-12.111 23.521-23.18 47.537-34.383 71.406v0.00002c-10.686 22.761-21.422 45.435-33.59 67.192z" fill-rule="evenodd" transform="matrix(-.23849 0 0 .23849 626.1 746.21)" filter="url(#filter3946)" fill="#282d46"/>
    <path id="path4108" opacity=".49756" stroke-linejoin="bevel" d="m402.9 1016.3c18.334-1.0542 18.42 0.5846 27.763-1.5009 42.677-9.5264 71.114-46.035 60.444-86.331-5.6625-21.386-18.431-38.91-37.49-48.79-16.853-8.7363-39.076-11.395-59.103-6.9245-27.076 6.044-46.071 24.22-54.592 47.251-6.2336 32.828-13.379 77.667 62.977 96.296z" stroke="#8655c4" stroke-linecap="round" stroke-dasharray="0.8, 0.4" stroke-width=".4" fill="url(#radialGradient4128)"/>
    <path id="path4110" d="m801.31 606.13-35.515 28.214 35.515 43.603 73.246 30.91 73.887-46.299-65.956-51.297-10.147-35.908-50.735 15.389-38.613 7.6946z" transform="matrix(.25 0 0 .25 226.94 746.78)" filter="url(#filter4012)" stroke="#88c1e6" stroke-width="3.563" fill="url(#radialGradient3896)"/>
    <path id="path4112" opacity=".44878" d="m933.04 603.16 43.77 30.544-43.77 47.204-90.271 33.462-91.061-50.122 81.286-55.534 12.506-38.874 62.528 16.66 47.589 8.33z" transform="matrix(.25 0 0 .25 226.94 746.78)" filter="url(#filter4038)" stroke-width="0" fill="url(#radialGradient4036)"/>
    <path id="path4130" stroke-linejoin="bevel" d="m272.86 1027.7c-18.334-1.0542-18.42 0.5846-27.763-1.501-42.677-9.5264-71.114-46.035-60.444-86.331 5.6625-21.386 18.431-38.91 37.49-48.79 16.853-8.7363 39.076-11.395 59.103-6.9245 27.076 6.044 46.071 24.22 54.592 47.251 6.2336 32.828 13.379 77.667-62.977 96.296z" stroke="#090000" stroke-linecap="round" stroke-dasharray="0.8, 0.4" stroke-width=".4" fill="url(#radialGradient4226)"/>
    <path id="path4132" opacity=".72195" d="m709.31 1054.8 9.956 0.9374c5.0571-62.548 13.651-124.99 31.577-185.06 17.457-58.529 44.443-114.41 80.588-163.98-37.461 48.577-66.114 103.95-85.298 162.5-19.67 60.055-30.08 122.83-36.823 185.6z" fill-rule="evenodd" transform="matrix(.23849 0 0 .23849 49.661 757.64)" filter="url(#filter4579)" fill="#282d46"/>
    <path id="path4134" d="m815.04 1077.4 9.9114 1.3282c16.276-133.94 30.997-268.64 29.33-403.52-1.6667 134.88-19.691 268.77-39.241 402.19z" fill-rule="evenodd" transform="matrix(.23849 0 0 .23849 49.661 757.64)" filter="url(#filter4563)" fill="#282d46"/>
    <path id="path4136" d="m909.47 1090.8 9.64-2.659c-19.799-68.623-31.407-139.61-38.141-211-6.7697-71.783-8.7003-144.03-9.5359-216.24-0.83562 72.209-0.57941 144.51 4.5392 216.66 5.0891 71.752 15.107 143.41 33.498 213.24z" fill-rule="evenodd" transform="matrix(.23849 0 0 .23849 49.661 757.64)" filter="url(#filter4567)" fill="#282d46"/>
    <path id="path4138" d="m980.72 1069.4 9.9976 0.2186c0.18302-17.962-1.9048-35.838-5.7053-53.256-3.8409-17.601-9.367-34.731-15.891-51.382 0 0-0.00001 0-0.00001-0.00001-13.517-34.488-31.096-66.988-48.612-99.278 0 0 0-0.00001-0.00001-0.00002-17.463-32.211-35.139-64.298-48.942-98.127-6.6157-16.212-12.312-32.823-16.386-49.861-3.9962-16.711-6.4051-33.845-6.6052-51.064-0.20013 17.219 1.8101 34.456 5.4342 51.329 3.6947 17.203 9.0292 34.038 15.301 50.485 13.086 34.313 30.086 66.974 46.794 99.559 16.751 32.691 33.485 65.403 45.964 99.624 0 0.00001 0.00001 0.00001 0.00001 0.00002 6.0231 16.512 11.034 33.358 14.347 50.484 3.2762 16.936 4.8878 34.162 4.3042 51.266z" fill-rule="evenodd" transform="matrix(.23849 0 0 .23849 49.661 757.64)" filter="url(#filter4591)" fill="#282d46"/>
    <path id="path4140" d="m1066.6 1013.7 9.6292-2.6976c-20-68.41-49.2-133.48-79.46-197.55-29.84-63.08-61.51-125.23-88.17-189.66 25.128 65.046 55.364 128.05 83.656 191.73 28.745 64.718 56.223 130.18 74.386 198.19z" fill-rule="evenodd" transform="matrix(.23849 0 0 .23849 49.661 757.64)" filter="url(#filter4583)" fill="#282d46"/>
    <path id="path4142" d="m1155.7 897.83 8.5318-5.2163c-31.456-49.83-65.405-97.87-99.212-145.92-33.085-47.028-66.196-94.026-96.483-142.9 28.873 49.724 60.674 97.735 92.397 145.69 32.417 49.006 64.932 97.933 94.765 148.35z" fill-rule="evenodd" transform="matrix(.23849 0 0 .23849 49.661 757.64)" filter="url(#filter4587)" fill="#282d46"/>
    <path id="path4146" d="m944.55 551.57-9.103-4.1396c-6.7458 17.027-15.539 33.412-25.101 49.393-8.1925 13.684-17.062 27.135-24.633 41.249 8.8899-13.322 18.928-25.747 28.473-38.691 11.142-15.101 21.65-30.841 30.364-47.811z" fill-rule="evenodd" transform="matrix(-.23849 0 0 .23849 450.19 779.07)" filter="url(#filter3962)" fill="#282d46"/>
    <path id="path4150" opacity=".72195" d="m611.01 698.81 0.82942 9.9655c27.877-3.1888 55.95-5.2782 84.066-7.0163 26.096-1.6126 52.221-2.8785 78.376-3.6808-26.155-0.80231-52.337-1.141-78.525-1.1308-28.211 0.0103-56.463 0.37683-84.746 1.8623z" fill-rule="evenodd" transform="matrix(.23849 0 0 .23849 51.09 759.07)" filter="url(#filter3954)" fill="#282d46"/>
    <path id="path4152" opacity=".72195" d="m583.71 802.07 4.0008 9.1648c14.374-6.7132 28.01-14.521 41.538-22.253 15.759-9.0006 31.391-18.115 47.291-26.708 15.441-8.342 31.084-16.29 47.402-22.67h0.00001c7.1698-2.8029 14.466-5.2939 21.939-7.1538 6.4892-1.6139 13.119-2.7701 19.829-2.9403-6.7093-0.17014-13.44 0.64877-20.05 1.9437-7.6149 1.4907-15.103 3.6268-22.466 6.0849-16.755 5.5928-32.945 12.801-48.862 20.392-16.409 7.8223-32.544 16.162-48.699 24.333-13.913 7.0332-27.739 14.053-41.924 19.807z" fill-rule="evenodd" transform="matrix(.23849 0 0 .23849 49.661 757.64)" filter="url(#filter4571)" fill="#282d46"/>
    <path id="path4154" opacity=".72195" d="m629.88 961.42 8.8092 4.7327c11.637-22.552 21.69-45.733 31.617-68.853v-0.00001c10.42-24.26 20.645-48.54 31.91-72.322 0.00001 0 0.00001-0.00001 0.00001-0.00001 10.889-22.981 22.688-45.557 36.901-66.618 13.023-19.291 28.147-37.395 46.597-51.717-18.915 13.701-34.763 31.397-48.504 50.383-15.002 20.721-27.659 43.07-39.356 65.795-12.111 23.521-23.18 47.537-34.383 71.406v0.00002c-10.686 22.761-21.422 45.435-33.59 67.192z" fill-rule="evenodd" transform="matrix(.23849 0 0 .23849 49.661 757.64)" filter="url(#filter4575)" fill="#282d46"/>
    <path id="path4156" opacity=".49756" stroke-linejoin="bevel" d="m274.29 1026.3c-18.334-1.0542-18.42 0.5846-27.763-1.5009-42.677-9.5264-71.114-46.035-60.444-86.331 5.6625-21.386 18.431-38.91 37.49-48.79 16.853-8.7364 39.076-11.395 59.103-6.9246 27.076 6.044 46.071 24.22 54.592 47.251 6.2336 32.828 13.379 77.667-62.977 96.296z" stroke="#a664c7" stroke-linecap="round" stroke-dasharray="0.8, 0.4" stroke-width=".4" fill="url(#radialGradient4228)"/>
    <path id="path4158" d="m801.31 606.13-35.515 28.214 35.515 43.603 73.246 30.91 73.887-46.299-65.956-51.297-10.147-35.908-50.735 15.389-38.613 7.6946z" transform="matrix(-.25 0 0 .25 460.25 769.64)" filter="url(#filter4012)" stroke="#88c1e6" stroke-width="3.563" fill="url(#radialGradient3896)"/>
    <path id="path4160" opacity=".44878" d="m933.04 603.16 43.77 30.544-43.77 47.204-90.271 33.462-91.061-50.122 81.286-55.534 12.506-38.874 62.528 16.66 47.589 8.33z" transform="matrix(-.25 0 0 .25 460.25 769.64)" filter="url(#filter4038)" stroke-width="0" fill="url(#radialGradient4036)"/>
    <path id="path4264" opacity=".69756" stroke-linejoin="bevel" d="m598.86 988.88c36.667 0.2246 36.84-0.1246 55.527 0.3198 85.355 2.0299 142.23 9.809 120.89 18.395-11.325 4.5569-36.861 8.2909-74.979 10.396-33.706 1.8615-78.151 2.4281-118.21 1.4755-54.153-1.2879-92.142-5.1609-109.18-10.068-12.467-6.995-26.758-16.549 125.95-20.519z" transform="matrix(.5 0 0 .5 103.47 517.55)" filter="url(#filter4312)" stroke="#090000" stroke-linecap="round" stroke-dasharray="0.52224496, 0.26112248" stroke-width=".26112" fill="#0e232e"/>
  </g>
  <metadata>
    <rdf:RDF>
      <cc:Work>
        <dc:format>image/svg+xml</dc:format>
        <dc:type rdf:resource="http://purl.org/dc/dcmitype/StillImage"/>
        <cc:license rdf:resource="http://creativecommons.org/licenses/publicdomain/"/>
        <dc:publisher>
          <cc:Agent rdf:about="http://openclipart.org/">
            <dc:title>Openclipart</dc:title>
          </cc:Agent>
        </dc:publisher>
        <dc:title>blueberry</dc:title>
        <dc:date>2011-04-04T07:32:56</dc:date>
        <dc:description>fruits by NetAlloy</dc:description>
        <dc:source>http://openclipart.org/detail/130927/blueberry-by-netalloy</dc:source>
        <dc:creator>
          <cc:Agent>
            <dc:title>netalloy</dc:title>
          </cc:Agent>
        </dc:creator>
        <dc:subject>
          <rdf:Bag>
            <rdf:li>Blue berry</rdf:li>
            <rdf:li>Vaccinium</rdf:li>
            <rdf:li>berries</rdf:li>
            <rdf:li>clip art</rdf:li>
            <rdf:li>clipart</rdf:li>
            <rdf:li>health</rdf:li>
            <rdf:li>natural diet</rdf:li>
            <rdf:li>north American fruits</rdf:li>
            <rdf:li>organic foods</rdf:li>
            <rdf:li>power food</rdf:li>
            <rdf:li>raw food</rdf:li>
            <rdf:li>vegetarian</rdf:li>
          </rdf:Bag>
        </dc:subject>
      </cc:Work>
      <cc:License rdf:about="http://creativecommons.org/licenses/publicdomain/">
        <cc:permits rdf:resource="http://creativecommons.org/ns#Reproduction"/>
        <cc:permits rdf:resource="http://creativecommons.org/ns#Distribution"/>
        <cc:permits rdf:resource="http://creativecommons.org/ns#DerivativeWorks"/>
      </cc:License>
    </rdf:RDF>
  </metadata>
</svg>
