<?xml version="1.0" encoding="UTF-8" standalone="no"?>
<!-- Created with Inkscape (http://www.inkscape.org/) -->
<svg
   xmlns:dc="http://purl.org/dc/elements/1.1/"
   xmlns:cc="http://creativecommons.org/ns#"
   xmlns:rdf="http://www.w3.org/1999/02/22-rdf-syntax-ns#"
   xmlns:svg="http://www.w3.org/2000/svg"
   xmlns="http://www.w3.org/2000/svg"
   xmlns:sodipodi="http://sodipodi.sourceforge.net/DTD/sodipodi-0.dtd"
   xmlns:inkscape="http://www.inkscape.org/namespaces/inkscape"
   width="469.47012"
   height="298.79211"
   id="svg2"
   sodipodi:version="0.32"
   inkscape:version="0.46"
   sodipodi:docname="chicken.svg"
   inkscape:output_extension="org.inkscape.output.svg.inkscape"
   version="1.0">
  <defs
     id="defs4">
    <inkscape:perspective
       sodipodi:type="inkscape:persp3d"
       inkscape:vp_x="0 : 526.18109 : 1"
       inkscape:vp_y="0 : 1000 : 0"
       inkscape:vp_z="744.09448 : 526.18109 : 1"
       inkscape:persp3d-origin="372.04724 : 350.78739 : 1"
       id="perspective10" />
    <inkscape:perspective
       id="perspective2654"
       inkscape:persp3d-origin="372.04724 : 350.78739 : 1"
       inkscape:vp_z="744.09448 : 526.18109 : 1"
       inkscape:vp_y="0 : 1000 : 0"
       inkscape:vp_x="0 : 526.18109 : 1"
       sodipodi:type="inkscape:persp3d" />
    <inkscape:perspective
       id="perspective2667"
       inkscape:persp3d-origin="372.04724 : 350.78739 : 1"
       inkscape:vp_z="744.09448 : 526.18109 : 1"
       inkscape:vp_y="0 : 1000 : 0"
       inkscape:vp_x="0 : 526.18109 : 1"
       sodipodi:type="inkscape:persp3d" />
    <inkscape:perspective
       id="perspective3457"
       inkscape:persp3d-origin="372.04724 : 350.78739 : 1"
       inkscape:vp_z="744.09448 : 526.18109 : 1"
       inkscape:vp_y="0 : 1000 : 0"
       inkscape:vp_x="0 : 526.18109 : 1"
       sodipodi:type="inkscape:persp3d" />
  </defs>
  <sodipodi:namedview
     id="base"
     pagecolor="#ffffff"
     bordercolor="#666666"
     borderopacity="1.0"
     inkscape:pageopacity="0.0"
     inkscape:pageshadow="2"
     inkscape:zoom="0.65553463"
     inkscape:cx="234.73506"
     inkscape:cy="149.39606"
     inkscape:document-units="px"
     inkscape:current-layer="layer1"
     showgrid="false"
     showguides="true"
     inkscape:guide-bbox="true"
     inkscape:window-width="1280"
     inkscape:window-height="775"
     inkscape:window-x="0"
     inkscape:window-y="2" />
  <metadata
     id="metadata7">
    <rdf:RDF>
      <cc:Work
         rdf:about="">
        <dc:format>image/svg+xml</dc:format>
        <dc:type
           rdf:resource="http://purl.org/dc/dcmitype/StillImage" />
      </cc:Work>
    </rdf:RDF>
  </metadata>
  <g
     inkscape:label="Camada 1"
     inkscape:groupmode="layer"
     id="layer1"
     transform="translate(-137.31218,-376.78504)">
    <g
       id="g3553"
       transform="translate(-236.49749,-445.90185)">
      <path
         style="opacity:1;fill:#eabb00;fill-opacity:1;fill-rule:evenodd;stroke:#806600;stroke-width:5;stroke-linecap:round;stroke-linejoin:round;marker:none;marker-start:none;marker-mid:none;marker-end:none;stroke-miterlimit:4;stroke-dasharray:none;stroke-dashoffset:0;stroke-opacity:1;visibility:visible;display:inline;overflow:visible;enable-background:accumulate"
         d="M 799.14581,1007.9155 C 756.47121,1001.282 681.37369,951.5309 653.96268,982.7861 C 643.05665,995.2216 654.51455,1021.9324 669.94295,1027.1525 C 701.37871,1037.7886 731.31701,1051.2079 763.89001,1055.913 C 789.17591,1057.3829 810.83513,1059.4089 832.18283,1042.6666 C 850.70263,1037.8072 835.53471,995.3818 821.95161,970.2819 C 818.63385,964.15108 825.71241,995.2888 823.10541,988.867 C 814.36681,967.342 756.13901,940.2012 726.50771,929.2539 C 712.49591,933.9078 794.05321,988.6445 799.14581,1007.9155 z"
         id="path3499"
         sodipodi:nodetypes="cssccsscc" />
      <path
         style="opacity:1;fill:#ffcc00;fill-opacity:1;fill-rule:evenodd;stroke:#806600;stroke-width:5;stroke-linecap:round;stroke-linejoin:round;marker:none;marker-start:none;marker-mid:none;marker-end:none;stroke-miterlimit:4;stroke-dasharray:none;stroke-dashoffset:0;stroke-opacity:1;visibility:visible;display:inline;overflow:visible;enable-background:accumulate"
         d="M 636.72216,943.10576 C 695.31223,885.84565 651.10732,829.38648 583.84909,825.29262 C 544.51188,822.89828 491.25348,861.92163 461.9251,865.978 C 461.9251,865.978 433.9784,872.11963 421.84344,871.52164 C 410.44321,870.95985 403.12589,857.76018 394.16813,864.48187 C 388.36309,868.8378 392.62354,876.73891 390.23869,883.39083 C 388.0573,889.47521 376.86238,900.21351 379.19407,906.24738 C 383.79802,918.16144 418.32505,930.74429 431.72141,915.18108 C 439.69868,905.91354 449.14848,907.32451 456.15598,908.54808 C 499.75585,916.16108 538.68564,956.83749 587.96361,953.25023"
         id="path3465"
         sodipodi:nodetypes="cssssssssc" />
      <path
         sodipodi:nodetypes="ccsssccc"
         id="path3504"
         d="M 584.7458,847.22463 C 520.86043,848.04729 389.04105,935.84542 388.869,890.34778 C 385.33546,895.41248 380.69431,901.84858 382.119,905.53538 C 386.72295,917.44948 419.50389,928.78608 432.90025,913.22278 C 440.87752,903.95538 450.33025,905.37428 457.33775,906.59778 C 500.93761,914.21078 539.87228,954.90388 589.15025,951.31658 L 655.494,866.56658 C 634.99292,849.78904 608.14901,846.92663 584.7458,847.22463 z"
         style="opacity:1;fill:#eabb00;fill-opacity:1;fill-rule:evenodd;stroke:none;stroke-width:1px;stroke-linecap:butt;stroke-linejoin:miter;marker:none;marker-start:none;marker-mid:none;marker-end:none;stroke-miterlimit:4;stroke-dasharray:none;stroke-dashoffset:0;stroke-opacity:1;visibility:visible;display:inline;overflow:visible;enable-background:accumulate" />
      <path
         style="opacity:1;fill:#ffcc00;fill-opacity:1;fill-rule:evenodd;stroke:#806600;stroke-width:5;stroke-linecap:round;stroke-linejoin:round;marker:none;marker-start:none;marker-mid:none;marker-end:none;stroke-miterlimit:4;stroke-dasharray:none;stroke-dashoffset:0;stroke-opacity:1;visibility:visible;display:inline;overflow:visible;enable-background:accumulate"
         d="M 402.32944,990.62752 C 406.68857,1032.5619 444.31138,1112.7339 523.34022,1111.242 C 590.06083,1109.9825 633.54763,1105.3522 673.03038,1112.9795 C 714.23018,1120.9385 726.40496,1114.9207 764.36393,1109.2332 C 779.11775,1107.0226 793.70116,1096.192 796.53484,1081.5451 C 799.90831,1064.1081 817.5373,1069.9049 819.92011,1058.9044 C 824.71872,1036.7511 819.44168,1000.7834 805.38189,984.75943 C 769.12717,943.43993 716.79167,892.73469 661.45341,871.36126 C 567.79689,835.18808 512.56133,897.05698 452.10289,919.33743 C 441.48624,923.24993 422.93852,927.67938 414.70329,935.43838 C 402.43364,931.67577 374.9073,947.26397 376.36541,955.15875 C 379.90999,974.35042 390.92603,989.50447 402.32944,990.62752 z"
         id="path3467"
         sodipodi:nodetypes="csssssssscsc" />
      <path
         style="opacity:1;fill:#eabb00;fill-opacity:1;fill-rule:evenodd;stroke:none;stroke-width:1px;stroke-linecap:butt;stroke-linejoin:miter;marker:none;marker-start:none;marker-mid:none;marker-end:none;stroke-miterlimit:4;stroke-dasharray:none;stroke-dashoffset:0;stroke-opacity:1;visibility:visible;display:inline;overflow:visible;enable-background:accumulate"
         d="M 493.51347,905.36613 C 526.44152,969.52358 583.48403,967.05985 591.07013,1020.1306 C 594.14305,1041.6281 574.84485,1083.3731 527.81706,1096.9831 C 596.78242,1111.1607 625.39826,1053.1486 615.27639,1012.4676 C 599.21413,947.91146 547.88595,934.39034 493.51347,905.36613 z"
         id="path3525"
         sodipodi:nodetypes="cscsc" />
      <path
         sodipodi:nodetypes="csssssssssc"
         id="path3448"
         d="M 508.84056,1090.6933 C 595.77516,1109.9377 624.98029,1039.4003 591.60066,978.06111 C 572.07799,942.1857 505.44459,917.37083 485.33284,893.90686 C 485.33284,893.90686 464.00335,872.82786 457.84711,861.83984 C 452.06361,851.51715 460.56374,837.67475 449.2059,833.58995 C 441.84556,830.9428 436.69126,839.12366 429.04239,840.76922 C 422.04616,842.27437 405.62803,838.48352 401.18093,843.92176 C 392.39994,854.65978 399.56577,892.03968 421.79329,895.05096 C 435.0293,896.84408 438.92418,905.93208 441.64378,912.77089 C 453.51932,942.63346 450.27353,955.18388 456.92134,988.84799 C 459.74583,1003.151 438.35441,980.99725 422.86004,985.1452"
         style="opacity:1;fill:#ffcc00;fill-opacity:1;fill-rule:evenodd;stroke:#806600;stroke-width:5.18625212;stroke-linecap:round;stroke-linejoin:round;marker:none;marker-start:none;marker-mid:none;marker-end:none;stroke-miterlimit:4;stroke-dasharray:none;stroke-dashoffset:0;stroke-opacity:1;visibility:visible;display:inline;overflow:visible;enable-background:accumulate" />
      <path
         sodipodi:nodetypes="cccccccc"
         id="path3511"
         d="M 379.95677,951.79179 C 386.77261,941.77741 403.04792,935.00787 417.14456,938.11827 C 423.8328,928.08409 433.9309,928.00395 443.26872,924.60348 C 449.83519,946.82021 450.66623,971.23047 454.06072,990.97233 C 444.39694,987.4095 436.78243,982.6171 422.79279,981.64978 C 420.9031,973.00199 416.37411,968.45695 408.68084,967.07434 C 405.75398,959.76146 405.14454,955.94291 410.87114,950.0744 C 402.82837,946.47099 390.88129,942.40817 379.95677,951.79179 z"
         style="opacity:1;fill:#eabb00;fill-opacity:1;fill-rule:evenodd;stroke:none;stroke-width:1px;stroke-linecap:butt;stroke-linejoin:miter;marker:none;marker-start:none;marker-mid:none;marker-end:none;stroke-miterlimit:4;stroke-dasharray:none;stroke-dashoffset:0;stroke-opacity:1;visibility:visible;display:inline;overflow:visible;enable-background:accumulate" />
      <path
         sodipodi:nodetypes="cscsc"
         id="path3513"
         d="M 466.4424,876.7283 C 499.37045,940.88575 559.90803,965.01015 573.19145,1016.9486 C 576.97148,1031.7286 584.54334,1074.8878 531.85869,1091.3262 C 578.90374,1094.8973 605.19521,1061.6911 601.9939,1019.8922 C 595.83113,939.77972 514.45092,938.98654 466.4424,876.7283 z"
         style="opacity:1;fill:#ffdd55;fill-opacity:1;fill-rule:evenodd;stroke:none;stroke-width:1px;stroke-linecap:butt;stroke-linejoin:miter;marker:none;marker-start:none;marker-mid:none;marker-end:none;stroke-miterlimit:4;stroke-dasharray:none;stroke-dashoffset:0;stroke-opacity:1;visibility:visible;display:inline;overflow:visible;enable-background:accumulate" />
      <path
         sodipodi:nodetypes="cssssccc"
         id="path3515"
         d="M 615.62456,1106.5472 C 600.80869,1103.6042 598.04491,1087.1159 612.00503,1073.8361 C 620.95923,1065.3183 619.22888,1056.9882 647.20891,1050.2452 C 683.61384,1041.4719 737.38971,1056.2367 773.72657,1054.3726 C 792.09966,1053.4301 789.81447,1033.976 781.54488,1013.0131 C 774.21832,994.44072 746.1136,975.65434 754.53398,977.55963 C 779.00326,984.40804 812.27519,1010.4655 817.41306,1037.5131 C 819.14974,1087.104 701.39823,1106.2476 615.62456,1106.5472 z"
         style="opacity:1;fill:#eabb00;fill-opacity:1;fill-rule:evenodd;stroke:none;stroke-width:1px;stroke-linecap:butt;stroke-linejoin:miter;marker:none;marker-start:none;marker-mid:none;marker-end:none;stroke-miterlimit:4;stroke-dasharray:none;stroke-dashoffset:0;stroke-opacity:1;visibility:visible;display:inline;overflow:visible;enable-background:accumulate" />
      <path
         sodipodi:nodetypes="cssccsscc"
         id="path3491"
         d="M 766.51772,1063.1435 C 707.08439,1063.563 640.50187,1031.5329 615.06901,1084.7367 C 607.93545,1099.6596 630.44259,1108.4395 646.20878,1112.5275 C 686.65948,1123.016 712.39671,1118.1126 745.22368,1115.7603 C 770.241,1111.8019 795.68289,1112.7121 812.96736,1091.8009 C 842.92787,1074.4424 805.62306,1035.8476 780.19761,1018.1643 C 774.47472,1014.184 787.05909,1048.8849 783.14203,1043.167 C 770.01251,1024.0019 749.78448,1029.0677 700.51947,1001.9829 C 687.82311,1009.519 723.96218,1045.9172 766.51772,1063.1435 z"
         style="opacity:1;fill:#ffcc00;fill-opacity:1;fill-rule:evenodd;stroke:#806600;stroke-width:5;stroke-linecap:round;stroke-linejoin:round;marker:none;marker-start:none;marker-mid:none;marker-end:none;stroke-miterlimit:4;stroke-dasharray:none;stroke-dashoffset:0;stroke-opacity:1;visibility:visible;display:inline;overflow:visible;enable-background:accumulate" />
      <path
         sodipodi:nodetypes="csscsc"
         id="path3517"
         d="M 633.13305,1066.0648 C 624.07821,1072.6816 611.05728,1091.4147 619.99529,1097.5056 C 642.80805,1113.0516 668.75554,1116.8636 697.23445,1115.8552 C 729.58332,1114.6954 754.81907,1113.6919 787.91423,1106.0514 C 787.91423,1106.0514 685.72085,1122.1893 639.06596,1093.4095 C 625.59261,1085.0983 633.13305,1066.0648 633.13305,1066.0648 z"
         style="opacity:1;fill:#ffdd55;fill-opacity:1;fill-rule:evenodd;stroke:none;stroke-width:1px;stroke-linecap:butt;stroke-linejoin:miter;marker:none;marker-start:none;marker-mid:none;marker-end:none;stroke-miterlimit:4;stroke-dasharray:none;stroke-dashoffset:0;stroke-opacity:1;visibility:visible;display:inline;overflow:visible;enable-background:accumulate" />
      <path
         sodipodi:nodetypes="ccsc"
         id="path3519"
         d="M 700.27683,1004.487 C 697.58147,1023.1654 742.47224,1052.2335 781.39414,1066.8945 C 774.47623,1058.8852 770.30669,1054.4115 760.31749,1046.4022 C 746.4415,1035.2765 715.31794,1029.0911 700.27683,1004.487 z"
         style="opacity:1;fill:#eabb00;fill-opacity:1;fill-rule:evenodd;stroke:none;stroke-width:1px;stroke-linecap:butt;stroke-linejoin:miter;marker:none;marker-start:none;marker-mid:none;marker-end:none;stroke-miterlimit:4;stroke-dasharray:none;stroke-dashoffset:0;stroke-opacity:1;visibility:visible;display:inline;overflow:visible;enable-background:accumulate" />
      <path
         sodipodi:nodetypes="cccsc"
         id="path3521"
         d="M 781.8054,1022.4971 C 797.23434,1035.3695 808.3586,1041.5646 821.59193,1069.0158 C 822.90386,1079.2029 817.66415,1086.7273 809.96775,1090.7345 C 809.96775,1090.7345 819.18014,1072.9232 813.027,1066.1223 C 802.41606,1054.3945 781.8054,1022.4971 781.8054,1022.4971 z"
         style="opacity:1;fill:#ffdd55;fill-opacity:1;fill-rule:evenodd;stroke:none;stroke-width:1px;stroke-linecap:butt;stroke-linejoin:miter;marker:none;marker-start:none;marker-mid:none;marker-end:none;stroke-miterlimit:4;stroke-dasharray:none;stroke-dashoffset:0;stroke-opacity:1;visibility:visible;display:inline;overflow:visible;enable-background:accumulate" />
      <path
         sodipodi:nodetypes="cccccc"
         id="path3523"
         d="M 539.47837,881.20908 C 564.82576,860.21768 611.50182,858.92431 653.94591,870.53015 C 698.59246,885.98361 733.7163,916.78179 766.29213,947.15936 C 798.48223,980.1785 812.21287,991.71653 816.46906,1018.8673 C 780.72876,973.22685 723.79821,930.76247 683.99145,908.44081 C 630.44047,871.489 578.29775,873.57159 539.47837,881.20908 z"
         style="opacity:1;fill:#ffdd55;fill-opacity:1;fill-rule:evenodd;stroke:none;stroke-width:1px;stroke-linecap:butt;stroke-linejoin:miter;marker:none;marker-start:none;marker-mid:none;marker-end:none;stroke-miterlimit:4;stroke-dasharray:none;stroke-dashoffset:0;stroke-opacity:1;visibility:visible;display:inline;overflow:visible;enable-background:accumulate" />
      <path
         sodipodi:nodetypes="cccsc"
         id="path3527"
         d="M 433.75,862.36218 C 433.41464,843.2839 411.02152,839.72505 402.5,846.36218 C 392.77805,871.80317 411.03049,894.58576 426.5,893.86218 C 415.33104,887.1608 401.03127,859.71159 412.5,851.86218 C 416.94113,848.82259 429.24183,854.3581 433.75,862.36218 z"
         style="opacity:1;fill:#eabb00;fill-opacity:1;fill-rule:evenodd;stroke:none;stroke-width:1px;stroke-linecap:butt;stroke-linejoin:miter;marker:none;marker-start:none;marker-mid:none;marker-end:none;stroke-miterlimit:4;stroke-dasharray:none;stroke-dashoffset:0;stroke-opacity:1;visibility:visible;display:inline;overflow:visible;enable-background:accumulate" />
    </g>
  </g>
</svg>
